<?xml version="1.0" encoding="UTF-8" standalone="no"?><!DOCTYPE svg PUBLIC "-//W3C//DTD SVG 1.1//EN" "http://www.w3.org/Graphics/SVG/1.1/DTD/svg11.dtd"><svg width="100%" height="100%" viewBox="0 0 200 200" version="1.1" xmlns="http://www.w3.org/2000/svg" xmlns:xlink="http://www.w3.org/1999/xlink" xml:space="preserve" xmlns:serif="http://www.serif.com/" style="fill-rule:evenodd;clip-rule:evenodd;stroke-linejoin:round;stroke-miterlimit:2;"><rect x="50" y="50" width="100" height="100" style="fill:none;"/><path d="M100,16.667c-32.25,-0 -58.333,26.083 -58.333,58.333c-0,14.5 4.166,28.083 11.75,40.333c7.916,12.834 18.333,23.834 26.333,36.667c3.917,6.25 6.75,12.083 9.75,18.833c2.167,4.584 3.917,12.5 10.5,12.5c6.583,0 8.333,-7.916 10.417,-12.5c3.083,-6.75 5.833,-12.583 9.75,-18.833c8,-12.75 18.416,-23.75 26.333,-36.667c7.667,-12.25 11.833,-25.833 11.833,-40.333c0,-32.25 -26.083,-58.333 -58.333,-58.333Zm0,81.25c-11.5,-0 -20.833,-9.334 -20.833,-20.834c-0,-11.5 9.333,-20.833 20.833,-20.833c11.5,0 20.833,9.333 20.833,20.833c0,11.5 -9.333,20.834 -20.833,20.834Z" style="fill-rule:nonzero;"/></svg>