<?xml version="1.0" encoding="UTF-8" standalone="no"?><!DOCTYPE svg PUBLIC "-//W3C//DTD SVG 1.1//EN" "http://www.w3.org/Graphics/SVG/1.1/DTD/svg11.dtd"><svg width="100%" height="100%" viewBox="0 0 200 200" version="1.1" xmlns="http://www.w3.org/2000/svg" xmlns:xlink="http://www.w3.org/1999/xlink" xml:space="preserve" xmlns:serif="http://www.serif.com/" style="fill-rule:evenodd;clip-rule:evenodd;stroke-linejoin:round;stroke-miterlimit:2;"><rect x="-108.333" y="-108.333" width="416.667" height="416.667" style="fill:none;"/><path d="M155.212,94.357c-15.54,-7.448 -36.976,0.396 -47.941,17.545c-4.932,7.711 -7.543,15.896 -8.055,24.161c-0.549,8.653 0.73,16.909 0.221,25.581c-0.239,4.229 -0.858,7.985 -1.706,12.266c-0.515,2.939 -2.364,7.552 0.808,9.073c3.172,1.52 6.707,-2.284 9.269,-4.24c3.782,-2.878 7.09,-5.344 11.102,-7.763c8.189,-4.932 16.949,-8.376 25.156,-13.415c7.859,-4.743 14.487,-11.004 19.416,-18.714c10.966,-17.149 7.269,-37.045 -8.27,-44.494Zm-27.628,43.206c-5.541,-2.657 -6.865,-9.775 -2.955,-15.891c3.912,-6.115 11.582,-8.922 17.123,-6.267c5.541,2.657 6.865,9.777 2.953,15.892c-3.91,6.114 -11.58,8.922 -17.121,6.266Z" style="fill-opacity:0.1;fill-rule:nonzero;"/></svg>